<svg width="23" height="16" viewBox="0 0 23 16" fill="none" xmlns="http://www.w3.org/2000/svg">
<path d="M21.1941 0H11.3695H1.54497C1.00238 0 0.5625 0.43988 0.5625 0.98247V15.0175C0.5625 15.5601 1.00238 16 1.54497 16H11.3695H21.1941C21.7367 16 22.1766 15.5601 22.1766 15.0175V0.98247C22.1766 0.43988 21.7367 0 21.1941 0Z" fill="#5286F9"/>
<path d="M12.1204 5.20417C12.3363 5.45155 12.5244 5.72383 12.6791 6.01647C12.9927 6.60921 13.1712 7.28402 13.1712 7.99998C13.1712 8.71595 12.9927 9.39067 12.6791 9.9835C12.5244 10.2761 12.3363 10.5483 12.1204 10.7957C11.8982 11.0503 11.6463 11.2781 11.37 11.4741C12.0646 11.9665 12.9118 12.2573 13.8261 12.2573C16.1736 12.2573 18.0835 10.3474 18.0835 7.99998C18.0835 5.65253 16.1736 3.74264 13.8261 3.74264C12.9118 3.74264 12.0646 4.03333 11.37 4.52586C11.6462 4.72182 11.8981 4.94965 12.1204 5.20417Z" fill="#FFB655"/>
<path d="M12.6791 6.01647C12.5244 5.72383 12.3363 5.45155 12.1204 5.20417C11.8981 4.94965 11.6462 4.72182 11.37 4.52586C10.6755 4.03333 9.82844 3.7428 8.91411 3.7428C6.56661 3.7428 4.65681 5.65265 4.65681 8.0001C4.65681 10.3475 6.56666 12.2574 8.91411 12.2574C9.82844 12.2574 10.6755 11.9665 11.37 11.4741C11.6463 11.2781 11.8982 11.0503 12.1204 10.7957C12.3363 10.5483 12.5244 10.2761 12.6791 9.9835C12.9927 9.39067 13.1712 8.71595 13.1712 7.99998C13.1712 7.28402 12.9927 6.60921 12.6791 6.01647Z" fill="#D8143A"/>
<path d="M8.91411 12.2574C6.56666 12.2574 4.65681 10.3475 4.65681 8.0001C4.65681 5.65265 6.56661 3.7428 8.91411 3.7428C9.82844 3.7428 10.6755 4.03333 11.37 4.52586L11.3695 0H1.54497C1.00238 0 0.5625 0.43988 0.5625 0.98247V15.0175C0.5625 15.5601 1.00238 16 1.54497 16H11.3695L11.37 11.4741C10.6755 11.9665 9.82844 12.2574 8.91411 12.2574Z" fill="#3D6DEB"/>
</svg>
